<?xml version="1.0" encoding="utf-8"?>
<!-- Generator: Adobe Illustrator 17.1.0, SVG Export Plug-In . SVG Version: 6.00 Build 0)  -->
<!DOCTYPE svg PUBLIC "-//W3C//DTD SVG 1.1//EN" "http://www.w3.org/Graphics/SVG/1.1/DTD/svg11.dtd">
<svg version="1.1" id="Layer_1" xmlns="http://www.w3.org/2000/svg" xmlns:xlink="http://www.w3.org/1999/xlink" x="0px" y="0px"
	 viewBox="0 0 227.8 227.8" enable-background="new 0 0 227.8 227.8" xml:space="preserve">
<path fill="#56575C" d="M48.7,34.9c2.7,4.2,3.9,7.9,5.4,15.8C64.7,40.3,77.7,34.9,92,34.9c12.9,0,23.4,4.2,31.6,12.7
	c2.2,2.1,4.3,4.9,6.2,7.6c14.2-14.6,26.9-20.3,44-20.3c12.1,0,23.6,3.6,30.7,9.7c8.8,7.6,11.6,16.7,11.6,37.9v110.4h-39.5V90.4
	c0-18.6-2.2-22.2-12.8-22.2c-7.6,0-18.2,5.2-27,13.1v111.7H98.2V91.9c0-19.4-2.8-23.9-14.1-23.9c-7.5,0-17.9,3.9-26.6,11.8v113.2
	H17.7V84.6c0-22.4-1.5-32.1-5.8-39.7L48.7,34.9z"/>
</svg>
